<svg xmlns="http://www.w3.org/2000/svg" viewBox="0 0 120 120" width="120" height="120">
  <!-- Mia — Teal (Default) -->
  <polygon points="18,52 38,12 58,52" fill="#0d9488"/>
  <polygon points="25,49 38,20 51,49" fill="#5eead4"/>
  <polygon points="62,52 82,12 102,52" fill="#0d9488"/>
  <polygon points="69,49 82,20 95,49" fill="#5eead4"/>
  <circle cx="60" cy="72" r="44" fill="#14b8a6"/>
  <ellipse cx="60" cy="82" rx="28" ry="24" fill="#99f6e4"/>
  <circle cx="42" cy="65" r="6.5" fill="#0f172a"/>
  <circle cx="78" cy="65" r="6.5" fill="#0f172a"/>
  <circle cx="44.5" cy="62.5" r="2.5" fill="#ffffff"/>
  <circle cx="80.5" cy="62.5" r="2.5" fill="#ffffff"/>
  <ellipse cx="60" cy="78" rx="5" ry="3.5" fill="#0f172a"/>
  <path d="M48,86 Q60,96 72,86" fill="none" stroke="#0f172a" stroke-width="2.5" stroke-linecap="round"/>
  <polygon points="60,42 62.5,48 69,48 63.5,52 65.5,58 60,54 54.5,58 56.5,52 51,48 57.5,48" fill="#fbbf24" opacity="0.9"/>
</svg>
