<svg xmlns="http://www.w3.org/2000/svg" viewBox="0 0 120 120" width="120" height="120">
  <!-- Zap — Drache thinking/nachdenkend -->
  <polygon points="30,46 22,18 40,40" fill="#059669"/>
  <polygon points="50,38 44,12 56,34" fill="#059669"/>
  <polygon points="70,34 76,12 82,38" fill="#059669"/>
  <polygon points="90,40 98,18 92,46" fill="#059669"/>
  <polygon points="33,44 26,24 38,40" fill="#6ee7b7"/>
  <polygon points="52,37 47,18 56,34" fill="#6ee7b7"/>
  <polygon points="72,34 76,18 80,37" fill="#6ee7b7"/>
  <polygon points="88,40 95,24 90,44" fill="#6ee7b7"/>
  <ellipse cx="60" cy="74" rx="42" ry="40" fill="#34d399"/>
  <ellipse cx="60" cy="86" rx="22" ry="16" fill="#a7f3d0"/>
  <!-- Linkes Auge normal -->
  <ellipse cx="42" cy="65" rx="7" ry="6.5" fill="#0f172a"/>
  <ellipse cx="42" cy="65" rx="3" ry="5.5" fill="#fbbf24"/>
  <ellipse cx="42" cy="65" rx="1.2" ry="5" fill="#0f172a"/>
  <circle cx="44.5" cy="62.5" r="2" fill="#ffffff"/>
  <!-- Rechtes Auge nach oben -->
  <ellipse cx="78" cy="62" rx="7" ry="6.5" fill="#0f172a"/>
  <ellipse cx="78" cy="62" rx="3" ry="5.5" fill="#fbbf24"/>
  <ellipse cx="78" cy="62" rx="1.2" ry="5" fill="#0f172a"/>
  <circle cx="80" cy="59.5" r="2" fill="#ffffff"/>
  <!-- Augenbraue -->
  <path d="M70,52 Q78,47 86,51" fill="none" stroke="#0f172a" stroke-width="2.5" stroke-linecap="round"/>
  <circle cx="52" cy="82" r="2.5" fill="#059669"/>
  <circle cx="68" cy="82" r="2.5" fill="#059669"/>
  <!-- Nachdenklicher Mund -->
  <path d="M50,94 Q58,92 64,95" fill="none" stroke="#0f172a" stroke-width="2.5" stroke-linecap="round"/>
  <path d="M16,68 Q4,56 8,44 Q14,52 18,60" fill="#6ee7b7" stroke="#34d399" stroke-width="1.5"/>
  <path d="M104,68 Q116,56 112,44 Q106,52 102,60" fill="#6ee7b7" stroke="#34d399" stroke-width="1.5"/>
  <polygon points="60,42 62.5,48 69,48 63.5,52 65.5,58 60,54 54.5,58 56.5,52 51,48 57.5,48" fill="#fbbf24" opacity="0.9"/>
  <!-- Denkblasen -->
  <circle cx="105" cy="30" r="8" fill="#e2e8f0" opacity="0.7"/>
  <circle cx="96" cy="42" r="4.5" fill="#e2e8f0" opacity="0.5"/>
  <circle cx="92" cy="50" r="2.5" fill="#e2e8f0" opacity="0.4"/>
  <!-- Kleines Rauchwölkchen statt Feuer -->
  <circle cx="60" cy="102" r="3" fill="#e2e8f0" opacity="0.4"/>
  <circle cx="56" cy="106" r="2" fill="#e2e8f0" opacity="0.3"/>
</svg>
