<svg xmlns="http://www.w3.org/2000/svg" viewBox="0 0 120 120" width="120" height="120">
  <!-- Flocke — Hase happy/feiernd -->
  <ellipse cx="38" cy="24" rx="10" ry="28" fill="#38bdf8"/>
  <ellipse cx="38" cy="24" rx="6" ry="24" fill="#bae6fd"/>
  <ellipse cx="78" cy="20" rx="10" ry="28" fill="#38bdf8" transform="rotate(8, 78, 20)"/>
  <ellipse cx="78" cy="20" rx="6" ry="24" fill="#bae6fd" transform="rotate(8, 78, 20)"/>
  <circle cx="60" cy="74" r="42" fill="#38bdf8"/>
  <circle cx="30" cy="78" r="14" fill="#7dd3fc"/>
  <circle cx="90" cy="78" r="14" fill="#7dd3fc"/>
  <ellipse cx="60" cy="80" rx="24" ry="22" fill="#e0f2fe"/>
  <!-- Happy Augen -->
  <path d="M35,65 Q42,57 49,65" fill="none" stroke="#0f172a" stroke-width="3" stroke-linecap="round"/>
  <path d="M71,65 Q78,57 85,65" fill="none" stroke="#0f172a" stroke-width="3" stroke-linecap="round"/>
  <ellipse cx="60" cy="78" rx="4" ry="3" fill="#f9a8d4"/>
  <line x1="60" y1="81" x2="60" y2="85" stroke="#0f172a" stroke-width="1.5" stroke-linecap="round"/>
  <path d="M51,87 Q60,95 69,87" fill="none" stroke="#0f172a" stroke-width="2" stroke-linecap="round"/>
  <rect x="56" y="85" width="3.5" height="5" rx="1.5" fill="white" stroke="#cbd5e1" stroke-width="0.5"/>
  <rect x="60.5" y="85" width="3.5" height="5" rx="1.5" fill="white" stroke="#cbd5e1" stroke-width="0.5"/>
  <!-- Wangenröte -->
  <circle cx="30" cy="82" r="6" fill="#f0abfc" opacity="0.25"/>
  <circle cx="90" cy="82" r="6" fill="#f0abfc" opacity="0.25"/>
  <polygon points="60,42 62.5,48 69,48 63.5,52 65.5,58 60,54 54.5,58 56.5,52 51,48 57.5,48" fill="#fbbf24" opacity="0.9"/>
  <polygon points="16,22 17.5,26 21,26 18,28.5 19,32 16,30 13,32 14,28.5 11,26 14.5,26" fill="#fbbf24" opacity="0.7"/>
  <circle cx="104" cy="28" r="2.5" fill="#5eead4" opacity="0.6"/>
</svg>
