<svg xmlns="http://www.w3.org/2000/svg" viewBox="0 0 120 120" width="120" height="120">
  <!-- Mia — happy/feiernd -->

  <!-- Linkes Ohr -->
  <polygon points="18,52 38,12 58,52" fill="#0d9488"/>
  <polygon points="25,49 38,20 51,49" fill="#5eead4"/>

  <!-- Rechtes Ohr -->
  <polygon points="62,52 82,12 102,52" fill="#0d9488"/>
  <polygon points="69,49 82,20 95,49" fill="#5eead4"/>

  <!-- Kopf -->
  <circle cx="60" cy="72" r="44" fill="#14b8a6"/>

  <!-- Gesichtsfleck -->
  <ellipse cx="60" cy="82" rx="28" ry="24" fill="#99f6e4"/>

  <!-- Glückliche Augen (geschlossen, ^_^) -->
  <path d="M35,65 Q42,57 49,65" fill="none" stroke="#0f172a" stroke-width="3" stroke-linecap="round"/>
  <path d="M71,65 Q78,57 85,65" fill="none" stroke="#0f172a" stroke-width="3" stroke-linecap="round"/>

  <!-- Nase -->
  <ellipse cx="60" cy="78" rx="5" ry="3.5" fill="#0f172a"/>

  <!-- Breites Grinsen -->
  <path d="M44,84 Q60,100 76,84" fill="none" stroke="#0f172a" stroke-width="2.5" stroke-linecap="round"/>

  <!-- Wangen-Röte -->
  <circle cx="34" cy="78" r="6" fill="#f0abfc" opacity="0.3"/>
  <circle cx="86" cy="78" r="6" fill="#f0abfc" opacity="0.3"/>

  <!-- Heldinnen-Stern (Stirn) -->
  <polygon points="60,42 62.5,48 69,48 63.5,52 65.5,58 60,54 54.5,58 56.5,52 51,48 57.5,48"
           fill="#fbbf24" opacity="0.9"/>

  <!-- Konfetti/Sternchen -->
  <polygon points="16,22 17.5,26 21,26 18,28.5 19,32 16,30 13,32 14,28.5 11,26 14.5,26"
           fill="#fbbf24" opacity="0.7"/>
  <polygon points="100,18 101.2,21 104,21 101.8,22.8 102.5,25.5 100,23.8 97.5,25.5 98.2,22.8 96,21 98.8,21"
           fill="#f59e0b" opacity="0.6"/>
  <circle cx="108" cy="35" r="2.5" fill="#5eead4" opacity="0.6"/>
  <circle cx="10" cy="38" r="2" fill="#14b8a6" opacity="0.5"/>
</svg>
