<svg xmlns="http://www.w3.org/2000/svg" viewBox="0 0 28 28" width="28" height="28">
  <path d="M4,18 Q4,8 14,6 Q24,8 24,18" fill="none" stroke="#fbbf24" stroke-width="2" stroke-linecap="round"/>
  <polygon points="9,11 10,14 12,14 10.5,15.5 11,18 9,16.5 7,18 7.5,15.5 6,14 8,14" fill="#fbbf24"/>
  <polygon points="14,7 15.5,11 19,11 16,13.5 17,17 14,14.5 11,17 12,13.5 9,11 12.5,11" fill="#fbbf24" stroke="#d97706" stroke-width="0.5"/>
  <polygon points="19,11 20,14 22,14 20.5,15.5 21,18 19,16.5 17,18 17.5,15.5 16,14 18,14" fill="#fbbf24"/>
</svg>
