<svg xmlns="http://www.w3.org/2000/svg" viewBox="0 0 120 120" width="120" height="120">
  <!-- Accessoire: Sterne-Haarreif -->
  <!-- Reif -->
  <path d="M22,56 Q22,36 60,32 Q98,36 98,56" fill="none" stroke="#fbbf24" stroke-width="3" stroke-linecap="round"/>
  <!-- Stern links -->
  <polygon points="36,38 37.5,42 41,42 38,44.5 39,48 36,46 33,48 34,44.5 31,42 34.5,42"
           fill="#fbbf24"/>
  <!-- Stern mitte (größer) -->
  <polygon points="60,28 63,35 70,35 64.5,39 66.5,46 60,42 53.5,46 55.5,39 50,35 57,35"
           fill="#fbbf24" stroke="#d97706" stroke-width="0.8"/>
  <!-- Stern rechts -->
  <polygon points="84,38 85.5,42 89,42 86,44.5 87,48 84,46 81,48 82,44.5 79,42 82.5,42"
           fill="#fbbf24"/>
  <!-- Kleine Sternchen dazwischen -->
  <circle cx="48" cy="33" r="1.5" fill="#fcd34d"/>
  <circle cx="72" cy="33" r="1.5" fill="#fcd34d"/>
</svg>
