<svg xmlns="http://www.w3.org/2000/svg" viewBox="0 0 120 120" width="120" height="120">
  <!-- Accessoire: Beanie-Mütze -->
  <!-- Mützen-Körper -->
  <path d="M24,52 Q24,24 60,20 Q96,24 96,52" fill="#6366f1"/>
  <!-- Umschlag/Bund -->
  <path d="M22,52 Q22,46 60,44 Q98,46 98,52 Q98,58 60,56 Q22,58 22,52 Z" fill="#818cf8"/>
  <!-- Streifen -->
  <path d="M28,38 Q60,30 92,38" fill="none" stroke="#818cf8" stroke-width="2.5"/>
  <path d="M30,32 Q60,24 90,32" fill="none" stroke="#a5b4fc" stroke-width="1.5"/>
  <!-- Bommel -->
  <circle cx="60" cy="16" r="8" fill="#818cf8"/>
  <circle cx="58" cy="14" r="2" fill="#a5b4fc" opacity="0.6"/>
  <circle cx="63" cy="18" r="1.5" fill="#a5b4fc" opacity="0.4"/>
  <!-- Textur-Rillen -->
  <path d="M32,48 L32,52" stroke="#4f46e5" stroke-width="0.8" opacity="0.3"/>
  <path d="M44,46 L44,52" stroke="#4f46e5" stroke-width="0.8" opacity="0.3"/>
  <path d="M56,45 L56,52" stroke="#4f46e5" stroke-width="0.8" opacity="0.3"/>
  <path d="M68,45 L68,52" stroke="#4f46e5" stroke-width="0.8" opacity="0.3"/>
  <path d="M80,46 L80,52" stroke="#4f46e5" stroke-width="0.8" opacity="0.3"/>
  <path d="M92,48 L92,52" stroke="#4f46e5" stroke-width="0.8" opacity="0.3"/>
</svg>
